<svg xmlns="http://www.w3.org/2000/svg" width="194" height="84" fill="none"><path fill="#4883F3" fill-opacity=".5" d="m9.271 67 2.304-15.336H2.503l.72-3.888h8.928l1.656-11.448H4.88l.648-3.888h8.856l2.232-14.688h4.176L18.56 32.44h11.376l2.232-14.688h4.176L34.111 32.44h9.072l-.648 3.888h-9L31.88 47.776h9l-.648 3.888h-8.928L29 67h-4.176l2.304-15.336H15.751L13.447 67H9.271Zm7.056-19.224h11.376l1.656-11.448H17.983l-1.656 11.448ZM50.853 23.736l-1.082 1.039.01.01.011.012 1.061-1.061Zm.072-8.568 1.039 1.082.011-.01.01-.011-1.06-1.061Zm8.568 0-1.06 1.06.01.011.011.011 1.04-1.082Zm0 8.568 1.06 1.06-1.06-1.06Zm-9 6.552v-1.5h-1.5v1.5h1.5Zm9.432 0h1.5v-1.5h-1.5v1.5Zm0 35.712v1.5h1.5V66h-1.5Zm-9.432 0h-1.5v1.5h1.5V66Zm4.68-41.964c-1.278 0-2.337-.439-3.26-1.36l-2.12 2.12c1.478 1.479 3.298 2.24 5.38 2.24v-3Zm-3.238-1.339c-.88-.917-1.31-1.984-1.31-3.281h-3c0 2.063.723 3.876 2.146 5.359l2.164-2.078Zm-1.31-3.281c0-1.276.437-2.3 1.339-3.166l-2.078-2.164c-1.498 1.438-2.26 3.246-2.26 5.33h3Zm1.36-3.187c.932-.931 1.971-1.361 3.188-1.361v-3c-2.047 0-3.84.77-5.309 2.24l2.122 2.12Zm3.188-1.361c1.278 0 2.338.439 3.26 1.36l2.12-2.12c-1.477-1.479-3.297-2.24-5.38-2.24v3Zm3.281 1.382c.902.866 1.34 1.89 1.34 3.166h3c0-2.084-.764-3.892-2.262-5.33l-2.078 2.164Zm1.34 3.166c0 1.278-.44 2.337-1.361 3.26l2.12 2.12c1.479-1.477 2.24-3.298 2.24-5.38h-3Zm-1.361 3.26c-.922.921-1.982 1.36-3.26 1.36v3c2.082 0 3.903-.761 5.38-2.24l-2.12-2.12Zm-7.94 9.112h9.432v-3h-9.432v3Zm7.932-1.5V66h3V30.288h-3Zm1.5 34.212h-9.432v3h9.432v-3ZM51.993 66V30.288h-3V66h3Z"/><circle cx="55" cy="19" r="7" fill="#4883F3"/><path fill="#4883F3" d="M65.65 30.288h10.585l5.976 22.68h.504l7.2-22.68h9.648l7.128 22.68h.504l5.904-22.68h10.44L112.091 66h-10.08l-7.272-22.752h-.432L87.107 66h-10.08L65.65 30.288Z"/><path fill="#4883F3" fill-opacity=".5" d="M144.289 67.152c-3.12 0-6-.816-8.64-2.448-2.592-1.632-4.68-3.888-6.264-6.768-1.536-2.88-2.304-6.144-2.304-9.792 0-3.648.768-6.912 2.304-9.792 1.584-2.88 3.672-5.136 6.264-6.768 2.64-1.632 5.52-2.448 8.64-2.448 2.496 0 4.68.504 6.552 1.512 1.92 1.008 3.36 2.304 4.32 3.888h.576l-.576-5.04V14.448h9.36V66h-8.784v-4.32h-.576c-.96 1.584-2.4 2.904-4.32 3.96-1.872 1.008-4.056 1.512-6.552 1.512Zm1.8-8.712c1.68 0 3.264-.408 4.752-1.224 1.488-.864 2.664-2.064 3.528-3.6.912-1.584 1.368-3.408 1.368-5.472 0-2.064-.456-3.864-1.368-5.4-.864-1.584-2.04-2.784-3.528-3.6-1.488-.864-3.072-1.296-4.752-1.296-1.68 0-3.264.432-4.752 1.296-1.44.816-2.616 2.016-3.528 3.6-.864 1.536-1.296 3.336-1.296 5.4 0 2.016.432 3.816 1.296 5.4.912 1.536 2.088 2.736 3.528 3.6 1.488.864 3.072 1.296 4.752 1.296Z"/><path fill="#4883F3" d="M127 49h37.5c0 10.217-7.283 19.5-17.5 19.5-10.217 0-20-9.283-20-19.5Z"/></svg>