<svg version="1.2" xmlns="http://www.w3.org/2000/svg" viewBox="0 0 1779 273" width="1779" height="273">
	<title>I/O22</title>
	<style>
		.s0 { fill: #202124 } 
		.s1 { fill: none;stroke: #202124;stroke-width: 2 } 
		.s2 { fill: #65b867 } 
		.s3 { fill: #538ff7 } 
		.s4 { fill: #e3e3e3 } 
		.s5 { fill: none;stroke: #000000;stroke-width: 2 } 
		.s6 { fill: #f6bd41 } 
		.s7 { fill: #ec5e4f } 
		.s8 { fill: #000000 } 
	</style>
	<g id="I/O22">
		<g id="Clip-Path">
			<g id="Layer">
				<g id="Clip-Path">
					<g id="Layer">
						<g id="Layer">
							<g id="Layer">
								<path id="Layer" class="s0" d="m584.3 67.5c0-6.6 5.4-12 12-12h1096.7c6.6 0 12 5.4 12 12v112c0 6.6-5.4 12-12 12h-1096.7c-6.6 0-12-5.4-12-12z"/>
								<path id="Layer" class="s1" d="m1697.3 67.5v112c0 6.6-5.4 12-12 12h-1039c-6.6 0-12-5.4-12-12v-112c0-6.6 5.4-12 12-12h1039c6.6 0 12 5.4 12 12z"/>
							</g>
						</g>
						<g id="Layer">
							<g id="Layer">
								<path id="Layer" class="s2" d="m1088.9 191.1l-492.6 0.4c-6.6 0-12-5.4-12-12v-112c0-6.6 5.4-12 12-12l492.6-0.4z"/>
								<path id="Layer" class="s1" d="m1088.9 191.1l-492.6 0.4c-6.6 0-12-5.4-12-12v-112c0-6.6 5.4-12 12-12l492.6-0.4z"/>
							</g>
						</g>
						<g id="Layer">
							<g id="Layer">
								<path id="Layer" class="s0" d="m1775.3 64.1l-60.3 57.4c-2 1.9-2.1 5.1-0.2 7.1l53.2 54.4c3.1 3.2 0.9 8.5-3.6 8.5h-88.6c-2.8 0-5-2.2-5-5v-126c0-2.8 2.2-5 5-5h96c4.5 0 6.7 5.5 3.5 8.6z"/>
								<path id="Layer" class="s1" d="m1775.3 64.1l-60.3 57.4c-2 1.9-2.1 5.1-0.2 7.1l53.2 54.4c3.1 3.2 0.9 8.5-3.6 8.5h-88.6c-2.8 0-5-2.2-5-5v-126c0-2.8 2.2-5 5-5h96c4.5 0 6.7 5.5 3.5 8.6z"/>
							</g>
						</g>
						<g id="Layer">
							<g id="Layer">
								<path id="Layer" class="s1" d="m465 113.3l126.3-56.8"/>
							</g>
						</g>
						<g id="Layer">
							<g id="Layer">
								<path id="Layer" class="s1" d="m465 133.5l126.3 56.8"/>
							</g>
						</g>
						<g id="Layer">
							<g id="Layer">
								<path id="Layer" class="s3" d="m471.7 238.9l-104.7-20.7c-4-0.8-5.5-5.8-2.6-8.6l81.6-76.8c2.8-2.6 7.4-1.2 8.3 2.6l23.1 97.5c0.9 3.5-2.2 6.7-5.7 6z"/>
								<path id="Layer" class="s1" d="m471.7 238.9l-104.7-20.7c-4-0.8-5.5-5.8-2.6-8.6l81.6-76.8c2.8-2.6 7.4-1.2 8.3 2.6l23.1 97.5c0.9 3.5-2.2 6.7-5.7 6z"/>
							</g>
						</g>
						<g id="Layer">
							<g id="Layer">
								<path id="Layer" class="s3" d="m272.3 227.8v37c0 3.9-3.1 7-7 7h-64c-3.9 0-7-3.1-7-7v-37c0-3.9 3.1-7 7-7h64c3.9 0 7 3.1 7 7z"/>
								<path id="Layer" class="s1" d="m272.3 227.8v37c0 3.9-3.1 7-7 7h-64c-3.9 0-7-3.1-7-7v-37c0-3.9 3.1-7 7-7h64c3.9 0 7 3.1 7 7z"/>
							</g>
						</g>
						<g id="Layer">
							<g id="Layer">
								<path id="Layer" class="s3" d="m481.4 14.5l-23.1 97.4c-0.9 3.8-5.5 5.2-8.3 2.6l-81.6-76.8c-2.9-2.7-1.4-7.8 2.6-8.6l104.7-20.7c3.5-0.7 6.6 2.5 5.7 6.1z"/>
								<path id="Layer" class="s1" d="m481.4 14.5l-23.1 97.4c-0.9 3.8-5.5 5.2-8.3 2.6l-81.6-76.8c-2.9-2.7-1.4-7.8 2.6-8.6l104.7-20.7c3.5-0.7 6.6 2.5 5.7 6.1z"/>
							</g>
						</g>
						<g id="Layer">
							<g id="Layer">
								<path id="Layer" class="s4" d="m235.8 1.8c129 0 233.5 54.8 233.5 122.5 0 67.7-104.5 122.5-233.5 122.5-129 0-233.5-54.8-233.5-122.5 0-67.7 104.5-122.5 233.5-122.5z"/>
								<path id="Layer" class="s1" d="m235.8 1.8c129 0 233.5 54.8 233.5 122.5 0 67.7-104.5 122.5-233.5 122.5-129 0-233.5-54.8-233.5-122.5 0-67.7 104.5-122.5 233.5-122.5z"/>
							</g>
						</g>
						<g id="Layer">
							<g id="Layer">
								<path id="Layer" class="s4" d="m235.8 37.8c129 0 233.5 38.3 233.5 85.5 0 47.2-104.5 85.5-233.5 85.5-129 0-233.5-38.3-233.5-85.5 0-47.2 104.5-85.5 233.5-85.5z"/>
								<path id="Layer" class="s1" d="m235.8 37.8c129 0 233.5 38.3 233.5 85.5 0 47.2-104.5 85.5-233.5 85.5-129 0-233.5-38.3-233.5-85.5 0-47.2 104.5-85.5 233.5-85.5z"/>
							</g>
						</g>
						<g id="Layer">
							<g id="Layer">
								<path id="Layer" class="s3" d="m504.2 128l-52.7 28.7c-1.3 0.7-2.9 0.8-4.3 0.2l-69.9-28.6c-4.2-1.7-4.2-7.6 0-9.3l69.9-28.7c1.4-0.5 3-0.4 4.3 0.3l52.7 28.6c3.5 1.9 3.5 6.9 0 8.8z"/>
								<path id="Layer" class="s5" d="m504.2 128l-52.7 28.7c-1.3 0.7-2.9 0.8-4.3 0.2l-69.9-28.6c-4.2-1.7-4.2-7.6 0-9.3l69.9-28.7c1.4-0.5 3-0.4 4.3 0.3l52.7 28.6c3.5 1.9 3.5 6.9 0 8.8z"/>
							</g>
						</g>
						<g id="Layer">
							<g id="Layer">
								<path id="Layer" class="s3" d="m13 88.4c0 0 7.7 7.5 7.7 30.9 0 23.4-11.8 31.9-11.8 31.9 0 0-6.7-9-6.5-31.2 0.2-14.1 10.6-31.6 10.6-31.6z"/>
								<path id="Layer" class="s1" d="m13 88.4c0 0 7.7 7.5 7.7 30.9 0 23.4-11.8 31.9-11.8 31.9 0 0-6.7-9-6.5-31.2 0.2-14.1 10.6-31.6 10.6-31.6z"/>
							</g>
						</g>
						<g id="Layer">
							<g id="Layer">
								<path id="Layer" class="s2" d="m173.5 80.2c9.6 0.7 18.6 5.2 24.8 12.5 4.7 5.4 7.7 12.1 8.5 19.2 0.9 7.1-0.4 14.2-3.7 20.6-3.3 6.3-8.4 11.6-14.8 15-6.3 3.5-13.5 5.1-20.7 4.5-7.2-0.6-14.1-3.2-19.7-7.7-5.7-4.4-9.9-10.4-12.1-17.1-2.2-6.8-2.4-14.1-0.4-21 2-6.8 6-12.9 11.5-17.6 7.3-6.2 16.9-9.2 26.6-8.4z"/>
								<path id="Layer" class="s1" d="m173.5 80.2c9.6 0.7 18.6 5.2 24.8 12.5 4.7 5.4 7.7 12.1 8.5 19.2 0.9 7.1-0.4 14.2-3.7 20.6-3.3 6.3-8.4 11.6-14.8 15-6.3 3.5-13.5 5.1-20.7 4.5-7.2-0.6-14.1-3.2-19.7-7.7-5.7-4.4-9.9-10.4-12.1-17.1-2.2-6.8-2.4-14.1-0.4-21 2-6.8 6-12.9 11.5-17.6 7.3-6.2 16.9-9.2 26.6-8.4z"/>
							</g>
						</g>
						<g id="Layer">
							<g id="Layer">
								<path id="Layer" class="s1" d="m170.6 151.9l-3.3-1.3c-33.4-13-31-61 3.4-70.6 35.2 10.3 36.3 59.6 1.7 71.3z"/>
							</g>
							<g id="Layer">
								<path id="Layer" class="s1" d="m170.7 79.8l-0.2 72.2"/>
							</g>
							<g id="Layer">
								<path id="Layer" class="s1" d="m133.5 116.2h72.9"/>
							</g>
							<g id="Layer">
								<path id="Layer" class="s1" d="m170.5 152c18.7-20.2 18.8-51.5 0.2-72-17.8 20.6-18.1 51.5-0.2 72z"/>
							</g>
							<g id="Layer">
								<path id="Layer" class="s1" d="m136.9 130.7c0 0 10.2-6.8 33.7-6.7 23.5 0.2 33.2 6.5 33.2 6.5"/>
							</g>
							<g id="Layer">
								<path id="Layer" class="s1" d="m203.8 101c0 0-10.3 6.8-33.8 6.7-23.5-0.2-33.1-6.5-33.1-6.5"/>
							</g>
							<g id="Layer">
								<path id="Layer" class="s1" d="m147.9 144.3c0 0 6.2-6 22.7-6.1 16.5-0.2 22.3 6.6 22.3 6.6"/>
							</g>
							<g id="Layer">
								<path id="Layer" class="s1" d="m192.9 87.9c0 0-6.2 6.1-22.7 6.2-16.5 0.1-22.3-6.7-22.3-6.7"/>
							</g>
						</g>
						<g id="Layer">
							<g id="Layer">
								<path id="Layer" class="s6" d="m124.7 80.8v72h-38v-72z"/>
								<path id="Layer" class="s1" d="m124.7 80.8v72h-38v-72z"/>
							</g>
						</g>
						<g id="Layer">
							<g id="Layer">
								<path id="Layer" class="s7" d="m217.3 142q3.3-3.3 12.8-12.9 9.7-9.8 12.9-13.3 4.5-4.7 6-7.6 1.7-2.9 1.7-6.8 0-4-3.1-6.9-3.1-3-8.4-3-4.9 0-7.9 2.9-3 2.7-4 6.4l-10.3-4.2q1.1-3.7 3.9-7.3 2.9-3.6 7.6-6 4.7-2.5 10.9-2.5 6.7 0 11.9 2.8 5.2 2.6 8 7.4 2.9 4.6 2.9 10.2 0 10.9-11.2 22.1-3.4 3.3-8.1 7.9-4.6 4.7-8.6 8.6l-2.1 2.2 0.1 0.4h30.7v10.3h-45.7z"/>
								<path id="Layer" class="s1" d="m217.3 142q3.3-3.3 12.8-12.9 9.7-9.8 12.9-13.3 4.5-4.7 6-7.6 1.7-2.9 1.7-6.8 0-4-3.1-6.9-3.1-3-8.4-3-4.9 0-7.9 2.9-3 2.7-4 6.4l-10.3-4.2q1.1-3.7 3.9-7.3 2.9-3.6 7.6-6 4.7-2.5 10.9-2.5 6.7 0 11.9 2.8 5.2 2.6 8 7.4 2.9 4.6 2.9 10.2 0 10.9-11.2 22.1-3.4 3.3-8.1 7.9-4.6 4.7-8.6 8.6l-2.1 2.2 0.1 0.4h30.7v10.3h-45.7z"/>
							</g>
							<g id="Layer">
								<path id="Layer" class="s7" d="m273.7 142q3.3-3.3 12.8-12.9 9.7-9.8 12.9-13.3 4.5-4.7 6-7.6 1.6-2.9 1.6-6.8 0-4-3-6.9-3.1-3-8.4-3-4.9 0-7.9 2.9-3 2.7-4 6.4l-10.3-4.2q1.1-3.7 3.9-7.3 2.9-3.6 7.6-6 4.7-2.5 10.9-2.5 6.7 0 11.9 2.8 5.2 2.6 8 7.4 2.9 4.6 2.9 10.2 0 10.9-11.2 22.1-3.4 3.3-8.1 7.9-4.6 4.7-8.6 8.6l-2.1 2.2 0.1 0.4h30.7v10.3h-45.7z"/>
								<path id="Layer" class="s1" d="m273.7 142q3.3-3.3 12.8-12.9 9.7-9.8 12.9-13.3 4.5-4.7 6-7.6 1.6-2.9 1.6-6.8 0-4-3-6.9-3.1-3-8.4-3-4.9 0-7.9 2.9-3 2.7-4 6.4l-10.3-4.2q1.1-3.7 3.9-7.3 2.9-3.6 7.6-6 4.7-2.5 10.9-2.5 6.7 0 11.9 2.8 5.2 2.6 8 7.4 2.9 4.6 2.9 10.2 0 10.9-11.2 22.1-3.4 3.3-8.1 7.9-4.6 4.7-8.6 8.6l-2.1 2.2 0.1 0.4h30.7v10.3h-45.7z"/>
							</g>
						</g>
						<g id="Layer">
							<path id="Layer" fill-rule="evenodd" class="s0" d="m620.2 106.5h-11v-5.9h28.2v5.9h-11v33.5h-6.2zm22.1-5.9h6.1v10.7l-0.3 4.3h0.3q1.2-2 3.6-3.2 2.4-1.3 5.1-1.3 5.1 0 7.8 3 2.7 3 2.7 8.1v17.8h-6v-16.9q0-3.2-1.7-4.8-1.7-1.6-4.4-1.6-2 0-3.6 1.1-1.6 1.2-2.6 3.1-0.9 1.9-0.9 4v15.1h-6.1zm35.6 39.1q-2.3-1.2-3.7-3.4-1.3-2.2-1.3-4.9 0-4.3 3.3-6.9 3.3-2.5 8.3-2.5 2.4 0 4.4 0.5 2 0.4 3.2 1v-1.5q0-2.5-2-4.2-1.9-1.6-4.9-1.6-2.2 0-4.1 0.9-1.9 1-3 2.6l-4.2-3.2q1.8-2.6 4.8-4 3-1.4 6.6-1.5 6.1 0 9.4 3 3.3 3 3.3 8.5v17.5h-5.9v-3.4h-0.3q-1.2 1.8-3.4 3-2.2 1.3-5.1 1.3-3 0-5.4-1.2zm10.4-4.9q1.8-1 2.8-2.8 1-1.8 1-3.8-1.3-0.7-3-1.2-1.7-0.4-3.5-0.4-3.4 0-5 1.4-1.6 1.3-1.6 3.4 0 2 1.5 3.2 1.5 1.2 3.9 1.2 2.2 0.1 3.9-1zm16-22.9h5.8v3.7h0.3q1.2-2 3.6-3.3 2.4-1.3 5.1-1.3 5.1 0 7.7 3 2.7 3 2.7 8.2v17.8h-6v-17q0-3.3-1.7-4.8-1.6-1.5-4.4-1.5-2.1 0-3.7 1.1-1.6 1.1-2.4 3-0.9 1.9-0.9 4v15.2h-6.1zm32-11.4h6.1v23h0.1l11.5-11.6h7.6v0.3l-10.9 10.8 11.3 16.6v0.3h-7.2l-8.3-12.7-4.1 4v8.7h-6.1zm31.7 38.2q-3.1-2.1-4.3-5.5l5.4-2.3q0.9 2.2 2.7 3.3 1.8 1.2 4.1 1.2 2.3 0 3.8-0.8 1.6-0.8 1.6-2.4 0-1.5-1.4-2.4-1.3-0.9-4-1.6l-3.4-0.8q-3.3-0.8-5.5-2.9-2.2-2.1-2.2-5.3 0-2.4 1.4-4.3 1.5-1.9 4-2.9 2.4-1 5.3-1 4 0 6.9 1.5 3 1.6 4.3 4.6l-5.3 2.3q-1.6-3.3-5.8-3.3-2 0-3.4 0.9-1.4 0.8-1.4 2.1 0 1.3 1.1 2.1 1 0.8 3 1.3l4.2 1.1q4.1 1 6.2 3.1 2.1 2.2 2.1 5.2 0 2.7-1.5 4.7-1.5 2-4.1 3.1-2.7 1.1-5.9 1.1-4.8 0-7.9-2.1zm40.7-21.5h-5.2v-5.3h5.2v-2.2q0-4.4 2.7-7 2.8-2.6 7-2.6 2.5 0 4.3 0.6v5.9q-1-0.3-1.8-0.6-0.9-0.2-2-0.3-1.8 0.1-3 1.2-1.2 1.2-1.2 3.2v1.8h7v5.3h-7v22.7h-6zm23.2 21.7q-3.4-2-5.3-5.4-1.8-3.4-1.8-7.6 0-4.2 1.8-7.6 1.9-3.4 5.3-5.4 3.3-1.9 7.6-1.9 4.2 0 7.5 2 3.4 2 5.3 5.4 1.8 3.4 1.8 7.5 0 4.2-1.8 7.6-1.9 3.4-5.3 5.4-3.3 1.9-7.5 1.9-4.3 0-7.6-1.9zm11.8-4.8q2-1.1 3.2-3.2 1.2-2.1 1.2-5 0-2.9-1.2-5-1.2-2-3.2-3.2-1.9-1.1-4.2-1.1-2.4 0-4.3 1.1-2 1.2-3.2 3.2-1.2 2.1-1.2 5 0 2.9 1.2 5 1.2 2.1 3.2 3.2 1.9 1.2 4.3 1.1 2.3 0.1 4.2-1.1zm16-22.2h5.8v4.1h0.2q1-2.1 3.3-3.6 2.3-1.4 4.9-1.4 2 0 3.4 0.6v6.2q-2.4-0.9-4.3-0.9-2.1 0-3.8 1.1-1.6 1.1-2.5 3-1 1.8-1 4v14.9h-6zm35.7-4.8q-1.2-1.2-1.2-2.9 0-1.7 1.2-2.9 1.1-1.1 2.9-1.1 1.7 0 2.8 1.1 1.2 1.2 1.2 2.9 0 1.7-1.2 2.9-1.1 1.2-2.8 1.2-1.8 0-2.9-1.2zm-5.6 45.3v-5.9q1.2 0.7 2.6 0.7 1.5 0 2.2-1 0.6-0.9 0.6-2.8v-31.5h6.1v31.6q0 4.7-2.3 7-2.3 2.2-6.1 2.2-1.8 0-3.1-0.3zm25.7-13.5q-3.4-1.9-5.3-5.4-1.8-3.4-1.8-7.6 0-4.1 1.8-7.5 1.9-3.4 5.3-5.4 3.3-2 7.6-2 4.2 0 7.5 2 3.4 2 5.3 5.4 1.8 3.4 1.8 7.5 0 4.2-1.8 7.6-1.9 3.5-5.3 5.4-3.3 2-7.5 2-4.3 0-7.6-2zm11.8-4.7q2-1.2 3.2-3.3 1.2-2.1 1.2-5 0-2.8-1.2-4.9-1.2-2.1-3.2-3.2-1.9-1.1-4.2-1.1-2.4 0-4.3 1.1-2 1.1-3.2 3.2-1.2 2.1-1.2 4.9 0 2.9 1.2 5 1.2 2.1 3.2 3.3 1.9 1.1 4.3 1.1 2.3 0 4.2-1.1zm16.6-27.1q-1.2-1.2-1.2-2.9 0-1.7 1.2-2.9 1.2-1.1 2.9-1.1 1.7 0 2.8 1.1 1.2 1.2 1.2 2.9 0 1.7-1.2 2.9-1.1 1.2-2.8 1.2-1.7 0-2.9-1.2zm-0.2 4.8h6.1v28.1h-6.1zm13.6 0h5.8v3.7h0.3q1.2-2 3.6-3.3 2.4-1.3 5.1-1.3 5.1 0 7.7 3 2.7 3 2.7 8.2v17.7h-6v-16.9q0-3.3-1.7-4.9-1.6-1.5-4.4-1.5-2.1 0-3.7 1.1-1.6 1.2-2.4 3-0.9 1.9-0.9 4v15.2h-6.1zm32.6-4.8q-1.2-1.2-1.2-2.9 0-1.7 1.2-2.9 1.2-1.1 2.9-1.1 1.7 0 2.9 1.1 1.2 1.2 1.2 2.9 0 1.7-1.2 2.9-1.2 1.2-2.9 1.2-1.7 0-2.9-1.2zm-0.1 4.8h6v28.1h-6zm13.6 0h5.7v3.7h0.3q1.2-2 3.6-3.3 2.4-1.3 5.1-1.3 5.1 0 7.8 3 2.6 3 2.6 8.2v17.7h-6v-16.9q0-3.3-1.6-4.9-1.7-1.5-4.5-1.5-2 0-3.6 1.1-1.6 1.2-2.5 3-0.9 1.9-0.9 4v15.2h-6zm36.1 38.5q-3.4-2.4-4.6-5.6l5.7-2.4q0.9 2.2 2.8 3.5 2 1.4 4.6 1.4 3.9 0 6-2.4 2.2-2.4 2.2-6.6v-2.6h-0.3q-1.4 2-3.7 3.1-2.3 1.2-5.2 1.2-3.5 0-6.6-1.8-3-1.8-4.8-5.1-1.8-3.3-1.8-7.6 0-4.2 1.8-7.5 1.8-3.3 4.8-5.1 3.1-1.9 6.6-1.9 2.9 0 5.2 1.2 2.3 1.2 3.7 3.1h0.3v-3.4h5.8v26.5q0 4.6-1.8 7.8-1.7 3.2-4.9 4.9-3.2 1.6-7.3 1.6-5.2 0-8.5-2.3zm12.6-17q1.9-1 3-3.1 1.1-2 1.1-4.8 0-4.2-2.3-6.5-2.4-2.4-5.8-2.4-2.3 0-4.2 1.1-1.8 1-2.9 3-1.1 2-1.1 4.8 0 2.9 1.1 4.9 1.1 2 2.9 3 1.9 1.1 4.2 1.1 2.2 0 4-1.1z"/>
						</g>
						<g id="Layer">
							<path id="Layer" fill-rule="evenodd" class="s6" d="m1145.1 138q-3.9-2.8-5.4-8l5.9-2.4q0.8 3.3 3.1 5.3 2.2 2.1 5.3 2.1 2.9 0 5-1.5 2-1.5 2-4.2 0-2.4-1.8-4-1.8-1.5-6.2-3.1l-2.5-0.9q-4-1.4-6.7-4-2.7-2.5-2.6-6.8 0-2.9 1.5-5.4 1.6-2.4 4.5-3.9 2.8-1.5 6.4-1.5 5.1 0 8.2 2.5 3.1 2.5 4.2 5.7l-5.6 2.3q-0.6-1.8-2.3-3.3-1.7-1.4-4.4-1.4-2.7 0-4.5 1.4-1.9 1.4-1.9 3.5 0 2 1.7 3.4 1.6 1.3 5.1 2.5l2.5 0.8q5.1 1.8 7.8 4.6 2.8 2.8 2.8 7.6 0 3.8-2 6.4-1.9 2.6-5 3.9-3 1.3-6.3 1.3-4.9 0-8.8-2.9zm33.6 0.9q-3.3-1.9-5.1-5.3-1.9-3.3-1.9-7.6 0-4 1.8-7.4 1.8-3.5 5-5.5 3.2-2 7.3-2 4.2 0 7.3 1.8 3.1 1.9 4.7 5.1 1.6 3.3 1.7 7.4 0 0.7-0.2 1.9h-21.5q0.3 3.9 2.8 6 2.4 2.1 5.7 2.1 2.5 0 4.4-1.2 1.9-1.1 3.1-3.2l5.1 2.4q-2 3.5-5.2 5.5-3.2 2-7.6 2-4.1 0-7.4-2zm14.6-16.2q-0.1-1.5-0.9-3-0.9-1.4-2.5-2.4-1.7-1-4.1-1-3 0-5 1.7-2 1.8-2.7 4.7zm17.3 16.2q-3.3-1.9-5.1-5.3-1.9-3.3-1.9-7.6 0-4 1.8-7.4 1.8-3.5 5-5.5 3.2-2 7.3-2 4.2 0 7.3 1.8 3.1 1.9 4.7 5.1 1.7 3.3 1.7 7.4 0 0.7-0.2 1.9h-21.5q0.3 3.9 2.8 6 2.4 2.1 5.7 2.1 2.5 0 4.4-1.2 1.9-1.1 3.1-3.2l5.1 2.4q-2 3.5-5.2 5.5-3.2 2-7.6 2-4.1 0-7.4-2zm14.6-16.2q-0.1-1.5-0.9-3-0.9-1.4-2.5-2.4-1.7-1-4.1-1-2.9 0-5 1.7-2 1.8-2.7 4.7zm33.3 15.8l-11.6-26.6h6.8l7.9 19.1h0.2l7.7-19.1h6.7l-17.4 40h-6.4zm27.2 0.4q-3.4-1.9-5.3-5.3-1.8-3.4-1.8-7.6 0-4.2 1.8-7.6 1.9-3.4 5.3-5.4 3.3-1.9 7.6-1.9 4.2 0 7.5 2 3.4 2 5.3 5.4 1.8 3.4 1.8 7.5 0 4.2-1.8 7.6-1.9 3.4-5.3 5.3-3.3 2-7.5 2-4.3 0-7.6-2zm11.8-4.7q2-1.1 3.2-3.2 1.2-2.1 1.2-5 0-2.9-1.2-5-1.2-2-3.2-3.2-1.9-1.1-4.2-1.1-2.4 0-4.3 1.1-2 1.2-3.2 3.2-1.2 2.1-1.2 5 0 2.9 1.2 5 1.2 2.1 3.2 3.2 1.9 1.1 4.3 1.1 2.3 0 4.2-1.1zm18.4 3.6q-2.6-3-2.6-8.5v-17.3h6v16.5q0 3.4 1.6 5.1 1.7 1.7 4.3 1.7 2.2 0 3.8-1.1 1.7-1.1 2.5-3 0.9-1.9 0.9-4v-15.2h6.1v28h-5.8v-3.6h-0.3q-1.1 2-3.6 3.2-2.4 1.3-5.1 1.3-5.1 0-7.8-3.1zm42.5-25.8h5.7v3.6h0.3q1.2-1.9 3.6-3.2 2.4-1.3 5.1-1.3 5.1 0 7.8 3 2.7 3 2.7 8.1v17.8h-6.1v-16.9q0-3.3-1.6-4.9-1.6-1.5-4.5-1.5-2 0-3.6 1.1-1.6 1.2-2.5 3-0.9 1.9-0.9 4v15.2h-6zm37.4 27q-3.3-1.9-5.1-5.3-1.9-3.4-1.9-7.6 0-4 1.8-7.5 1.8-3.4 5-5.4 3.2-2.1 7.3-2.1 4.2 0 7.3 1.9 3.1 1.9 4.7 5.1 1.7 3.3 1.7 7.3 0 0.8-0.2 2h-21.5q0.3 3.9 2.8 6 2.4 2.1 5.7 2.1 2.5 0 4.4-1.2 1.9-1.2 3.1-3.2l5.1 2.4q-2 3.5-5.2 5.5-3.2 1.9-7.6 1.9-4.1 0.1-7.4-1.9zm14.6-16.3q-0.1-1.4-0.9-2.9-0.9-1.5-2.5-2.5-1.7-0.9-4.1-0.9-2.9 0-5 1.7-2 1.7-2.7 4.6zm18.9 3.1l-9.7-13.8h7l6.3 9.1h0.1l6-9.1h7.2l-9.8 13.8 9.9 14.3h-7.1l-6.3-9.5h-0.1l-6.2 9.5h-7.1zm29.3 14.5q-1.7-0.6-2.7-1.6-2.4-2.5-2.4-6.6v-14.8h-4.9v-5.3h4.9v-8h6v8h6.9v5.3h-6.9v13.5q0 2.3 0.9 3.3 0.8 1.1 2.9 1.1 0.9 0 1.6-0.2 0.8-0.3 1.6-0.8v5.9q-1.8 0.8-4.4 0.8-1.9 0-3.5-0.6zm34.7-1.8l-11.6-26.5h6.7l7.9 19h0.3l7.7-19h6.6l-17.3 39.9h-6.4zm27 0.5q-3.3-1.9-5.1-5.3-1.9-3.4-1.9-7.6 0-4 1.8-7.5 1.8-3.4 5-5.5 3.2-2 7.3-2 4.2 0 7.3 1.9 3.1 1.9 4.7 5.1 1.6 3.2 1.6 7.3 0 0.8-0.1 1.9h-21.5q0.3 3.9 2.8 6.1 2.4 2.1 5.6 2.1 2.6 0 4.5-1.2 1.9-1.2 3.1-3.2l5.1 2.4q-2 3.5-5.2 5.4-3.2 2-7.6 2-4.1 0-7.4-1.9zm14.6-16.3q-0.1-1.5-0.9-2.9-0.9-1.5-2.6-2.5-1.6-1-4-1-3 0-5 1.8-2 1.7-2.7 4.6zm15.3 17q-2.4-1.1-3.7-3.3-1.3-2.2-1.3-4.9 0-4.4 3.3-6.9 3.2-2.5 8.2-2.6 2.5 0.1 4.5 0.5 2 0.5 3.1 1v-1.4q0-2.6-1.9-4.2-1.9-1.6-4.9-1.6-2.2 0-4.1 0.9-1.9 1-3 2.6l-4.3-3.3q1.9-2.5 4.9-4 2.9-1.4 6.6-1.4 6.1 0 9.4 3 3.3 3 3.3 8.4v17.5h-6v-3.3h-0.2q-1.2 1.8-3.5 3-2.1 1.2-5 1.2-3 0-5.4-1.2zm10.4-4.8q1.8-1.1 2.7-2.8 1-1.8 1-3.8-1.2-0.7-2.9-1.2-1.7-0.4-3.5-0.4-3.4 0-5 1.3-1.6 1.4-1.6 3.5 0 1.9 1.5 3.2 1.5 1.2 3.8 1.2 2.2 0 4-1zm16-22.9h5.8v4.1h0.2q1-2.1 3.3-3.6 2.3-1.4 4.9-1.4 2 0 3.4 0.6v6.2q-2.4-0.9-4.3-0.9-2.1 0.1-3.8 1.1-1.6 1.2-2.5 3-1 1.8-1 4v14.9h-6z"/>
						</g>
					</g>
				</g>
			</g>
		</g>
		<path id="Shape 2" class="s2" d="m606 85h466v81h-466z"/>
		<path id="Join us as we" class="s8" aria-label="Join us as we"  d="m679.2 142q-4.9 0-8.6-2.7-3.7-2.7-5.2-7.5l6.3-2.6q1.1 3.3 3 4.8 1.9 1.5 4.5 1.5 3.2 0 5-2.1 1.8-2.1 1.8-5.6v-29.8h6.8v29.5q0 3.5-1.1 6.2-1 2.7-2.8 4.6-1.8 1.8-4.3 2.8-2.5 0.9-5.4 0.9zm33.6-31.4q3.4 0 6.2 1.2 2.8 1.2 4.9 3.3 2 2.1 3.2 5 1.1 2.8 1.1 6.2 0 3.4-1.1 6.2-1.2 2.9-3.2 5-2.1 2.1-4.9 3.3-2.8 1.2-6.2 1.2-3.3 0-6.1-1.2-2.9-1.2-4.9-3.3-2-2.1-3.2-5-1.1-2.8-1.1-6.2 0-3.4 1.1-6.2 1.2-2.9 3.2-5 2-2.1 4.9-3.3 2.8-1.2 6.1-1.2zm0 25.2q1.7 0 3.3-0.7 1.5-0.6 2.7-1.8 1.3-1.2 2-3 0.7-1.8 0.7-4 0-2.2-0.7-4-0.7-1.8-2-3-1.2-1.2-2.7-1.8-1.6-0.7-3.3-0.7-1.6 0-3.2 0.7-1.6 0.6-2.8 1.8-1.2 1.2-1.9 3-0.8 1.8-0.8 4 0 2.2 0.8 4 0.7 1.8 1.9 3 1.2 1.2 2.8 1.8 1.6 0.7 3.2 0.7zm23.7-29.4q-1.9 0-3.3-1.3-1.2-1.4-1.2-3.2 0-1.9 1.2-3.2 1.4-1.3 3.3-1.3 1.8 0 3.1 1.3 1.3 1.3 1.3 3.2 0 1.8-1.3 3.2-1.3 1.3-3.1 1.3zm3.3 34.6h-6.7v-29.4h6.7zm13.5-29.4v4h0.3q1.4-2.1 3.8-3.5 2.4-1.5 5.5-1.5 5.6 0 8.3 3.4 2.8 3.3 2.8 8.8v18.2h-6.7v-17.3q0-3.8-1.8-5.3-1.7-1.6-4.6-1.6-1.7 0-3.1 0.7-1.3 0.8-2.2 2-1 1.2-1.5 2.8-0.5 1.6-0.5 3.3v15.4h-6.6v-29.4zm60.8 29.4v-4h-0.3q-1.4 2.1-3.8 3.6-2.4 1.4-5.5 1.4-5.6 0-8.3-3.3-2.8-3.4-2.8-8.9v-18.2h6.7v17.3q0 3.8 1.7 5.4 1.8 1.5 4.7 1.5 1.7 0 3-0.7 1.4-0.8 2.3-2 1-1.2 1.5-2.8 0.5-1.6 0.5-3.3v-15.4h6.6v29.4zm23.9 1q-2.7 0-4.9-0.8-2.1-0.7-3.7-1.8-1.7-1.2-2.8-2.7-1.1-1.5-1.7-3.1l6-2.6q1 2.6 3 3.9 1.9 1.2 4.1 1.2 2.5 0 4-1 1.4-1.1 1.4-2.3 0-1.3-1.1-2.2-1.1-0.9-4.1-1.7l-4.2-1q-1.3-0.3-2.8-0.9-1.4-0.6-2.6-1.6-1.2-1-1.9-2.4-0.8-1.4-0.8-3.4 0-2.1 0.9-3.8 1-1.7 2.6-2.8 1.6-1.2 3.7-1.8 2.2-0.6 4.6-0.6 2 0 3.8 0.5 1.8 0.4 3.4 1.2 1.6 0.9 2.8 2.2 1.2 1.2 1.9 3l-5.8 2.4q-0.9-1.9-2.7-2.7-1.8-0.9-3.6-0.9-0.9 0-1.8 0.2-0.8 0.2-1.5 0.6-0.7 0.4-1.2 1-0.4 0.6-0.4 1.3 0 1.2 1 1.9 1.1 0.7 3.3 1.2l4.5 1.2q4.5 1.1 6.6 3.4 2.2 2.3 2.2 5.4 0 2-0.9 3.6-0.9 1.7-2.5 3-1.6 1.4-3.9 2.1-2.2 0.8-4.9 0.8zm48.8-1v-3.6h-0.4q-1.3 1.7-3.4 3.2-2.1 1.4-5.3 1.4-2.4 0-4.4-0.8-2.1-0.7-3.6-2.1-1.5-1.3-2.4-3.1-0.8-1.9-0.8-4.1 0-2.4 0.9-4.2 1-1.9 2.6-3.1 1.7-1.3 3.9-2 2.3-0.7 5-0.7 2.9 0 4.9 0.6 2 0.6 3 1v-1.1q0-1.3-0.6-2.5-0.6-1.1-1.6-1.9-0.9-0.8-2.2-1.2-1.3-0.5-2.6-0.5-2.3 0-4.1 0.9-1.7 0.8-3.1 2.7l-5.3-3.4q2.1-2.9 5.3-4.4 3.1-1.5 7-1.5 6.6 0 10.1 3.3 3.6 3.2 3.6 9.2v17.9zm0-12.2q-1.3-0.8-2.9-1.3-1.6-0.5-3.7-0.5-3.2 0-5 1.5-1.9 1.4-1.9 3.4 0 1.1 0.5 2 0.5 0.7 1.2 1.3 0.8 0.6 1.7 0.9 1.1 0.3 2.1 0.3 1.6 0 3-0.6 1.5-0.6 2.6-1.6 1.1-1.1 1.8-2.5 0.6-1.4 0.6-2.9zm23.7 13.2q-2.7 0-4.9-0.8-2.2-0.7-3.8-1.8-1.6-1.2-2.7-2.7-1.1-1.5-1.7-3.1l6-2.6q1 2.6 2.9 3.9 1.9 1.2 4.2 1.2 2.5 0 3.9-1 1.5-1.1 1.5-2.3 0-1.3-1.1-2.2-1.1-0.9-4.1-1.7l-4.2-1q-1.4-0.3-2.8-0.9-1.4-0.6-2.6-1.6-1.2-1-2-2.4-0.7-1.4-0.7-3.4 0-2.1 0.9-3.8 1-1.7 2.6-2.8 1.6-1.2 3.7-1.8 2.2-0.6 4.6-0.6 1.9 0 3.7 0.5 1.9 0.4 3.5 1.2 1.5 0.9 2.7 2.2 1.3 1.2 2 3l-5.9 2.4q-0.8-1.9-2.6-2.7-1.8-0.9-3.7-0.9-0.8 0-1.7 0.2-0.9 0.2-1.6 0.6-0.6 0.4-1.1 1-0.4 0.6-0.4 1.3 0 1.2 1 1.9 1.1 0.7 3.2 1.2l4.5 1.2q4.6 1.1 6.7 3.4 2.1 2.3 2.1 5.4 0 2-0.9 3.6-0.8 1.7-2.4 3-1.6 1.4-3.9 2.1-2.2 0.8-4.9 0.8zm36.4-1l-9.4-29.4h7.3l5.7 20.3h0.2l6.6-20.3h6.9l6.6 20.3h0.2l5.6-20.3h7.2l-9.4 29.4h-7.1l-6.6-20.6h-0.3l-6.4 20.6zm61.3-9.8l5.7 2.8q-1.8 3.4-5.2 5.7-3.5 2.3-8.4 2.3-3.3 0-6.2-1.2-2.7-1.2-4.8-3.3-2-2.1-3.1-4.9-1.2-2.9-1.2-6.3 0-3.2 1.1-6 1.1-2.9 3-5 2-2.1 4.7-3.4 2.8-1.3 6.2-1.3 3.4 0 6 1.2 2.7 1.1 4.6 3.2 1.8 2 2.8 4.9 1 2.9 1 6.3 0 0.3 0 0.5 0 0.3 0 0.6-0.1 0.2-0.1 0.4h-22.6q0.2 2.1 1 3.7 0.8 1.6 2 2.6 1.3 1 2.8 1.5 1.5 0.5 2.9 0.5 2.9 0 4.8-1.4 1.8-1.4 3-3.4zm-16.1-8.6h15.7q-0.2-0.9-0.6-1.9-0.5-1.2-1.4-2.1-0.9-0.9-2.4-1.6-1.5-0.7-3.6-0.7-2.8 0-4.9 1.8-2.1 1.7-2.8 4.5z"/>
		<path id="Shape 3" class="s0" d="m1125 84h482v72h-482z"/>
		<path id="celebrate technology" class="s6" aria-label="celebrate technology"  d="m1143.5 132.9l6 2.6q-0.8 1.7-2.1 3.3-1.2 1.5-2.8 2.7-1.7 1.1-3.8 1.8-2.2 0.7-4.8 0.7-3.3 0-6.1-1.2-2.9-1.2-4.9-3.3-2-2.1-3.2-5-1.1-2.8-1.1-6.2 0-3.4 1.1-6.2 1.2-2.9 3.2-5 2-2.1 4.9-3.3 2.8-1.2 6.1-1.2 2.6 0 4.7 0.7 2.2 0.7 3.8 1.9 1.7 1.1 2.9 2.7 1.2 1.5 1.9 3.1l-6.1 2.6q-1-2.3-2.8-3.5-1.8-1.3-4.6-1.3-1.7 0-3.2 0.7-1.5 0.7-2.7 2-1.2 1.2-1.9 2.9-0.7 1.7-0.7 3.9 0 2.2 0.7 3.9 0.7 1.7 1.9 3 1.2 1.2 2.7 1.9 1.5 0.7 3.2 0.7 2.8 0 4.7-1.3 2-1.3 3-3.6zm32.1 0.3l5.7 2.8q-1.9 3.4-5.3 5.7-3.4 2.3-8.4 2.3-3.3 0-6.1-1.2-2.8-1.2-4.8-3.3-2.1-2.1-3.2-4.9-1.1-2.9-1.1-6.3 0-3.2 1-6 1.1-2.9 3-5 2-2.1 4.8-3.4 2.7-1.3 6.1-1.3 3.4 0 6.1 1.2 2.7 1.1 4.5 3.2 1.9 2 2.8 4.9 1.1 2.9 1.1 6.3 0 0.3 0 0.5-0.1 0.3-0.1 0.6-0.1 0.2-0.1 0.4h-22.6q0.2 2.1 1 3.7 0.9 1.6 2.1 2.6 1.2 1 2.7 1.5 1.5 0.5 3 0.5 2.9 0 4.7-1.4 1.9-1.4 3.1-3.4zm-16.2-8.6h15.7q-0.1-0.9-0.6-1.9-0.4-1.2-1.4-2.1-0.9-0.9-2.4-1.6-1.4-0.7-3.5-0.7-2.9 0-5 1.8-2 1.7-2.8 4.5zm34.1 18.4h-6.7v-43h6.7zm27.9-9.8l5.7 2.8q-1.8 3.4-5.3 5.7-3.4 2.3-8.4 2.3-3.3 0-6.1-1.1-2.7-1.2-4.8-3.3-2-2.1-3.2-5-1.1-2.8-1.1-6.3 0-3.1 1.1-6 1.1-2.8 3-4.9 2-2.2 4.7-3.5 2.8-1.2 6.1-1.2 3.5 0 6.1 1.1 2.7 1.2 4.6 3.2 1.8 2 2.8 4.9 1 2.9 1 6.3 0 0.3 0 0.6-0.1 0.3-0.1 0.5 0 0.2 0 0.5h-22.6q0.1 2.1 1 3.6 0.8 1.6 2 2.6 1.3 1 2.8 1.5 1.5 0.5 2.9 0.5 2.9 0 4.8-1.4 1.8-1.4 3-3.4zm-16.1-8.5h15.6q-0.1-0.9-0.6-2-0.4-1.1-1.3-2-0.9-1-2.4-1.7-1.5-0.6-3.6-0.6-2.9 0-5 1.7-2 1.7-2.7 4.6zm27.3 18.3v-42.9h6.7v13.2l-0.4 4.1h0.4q1.2-1.9 3.7-3.3 2.4-1.4 5.8-1.4 2.9 0 5.4 1.2 2.6 1.1 4.5 3.2 1.9 2.1 3 5 1.2 2.8 1.2 6.2 0 3.5-1.2 6.3-1.1 2.9-3 5-1.9 2.1-4.5 3.3-2.5 1.1-5.4 1.1-3.4 0-5.8-1.4-2.5-1.4-3.7-3.3h-0.4v3.7zm15-5.2q1.7 0 3.2-0.6 1.6-0.7 2.8-1.9 1.2-1.3 1.9-3 0.7-1.7 0.7-4 0-2.2-0.7-3.9-0.7-1.8-1.9-3-1.2-1.2-2.8-1.9-1.5-0.6-3.2-0.6-1.8 0-3.3 0.6-1.6 0.7-2.8 1.9-1.1 1.2-1.8 3-0.8 1.7-0.8 3.9 0 2.3 0.8 4.1 0.7 1.7 1.8 2.9 1.2 1.2 2.8 1.9 1.5 0.6 3.3 0.6zm19.7 5.2v-29.4h6.3v4.5h0.4q0.5-1.2 1.4-2.1 1-1 2.1-1.7 1.2-0.7 2.5-1.1 1.3-0.4 2.5-0.4 1.4 0 2.5 0.2 1 0.3 1.8 0.7l-1.9 6.2q-0.7-0.3-1.5-0.4-0.8-0.2-1.9-0.2-1.6 0-3 0.6-1.3 0.7-2.4 1.8-1 1.2-1.6 2.7-0.5 1.6-0.5 3.3v15.3zm40.5 0v-3.6h-0.4q-1.3 1.8-3.4 3.2-2.1 1.4-5.3 1.4-2.4 0-4.4-0.7-2.1-0.8-3.6-2.1-1.5-1.4-2.4-3.2-0.8-1.9-0.8-4.1 0-2.3 0.9-4.2 1-1.8 2.6-3.1 1.7-1.3 3.9-1.9 2.3-0.7 5-0.7 2.9 0 4.9 0.6 2 0.5 3 1v-1.2q0-1.3-0.6-2.4-0.6-1.2-1.6-1.9-0.9-0.9-2.2-1.3-1.3-0.5-2.6-0.5-2.3 0-4.1 0.9-1.7 0.9-3.1 2.8l-5.3-3.5q2.1-2.9 5.3-4.3 3.1-1.5 7-1.5 6.6 0 10.1 3.2 3.6 3.3 3.6 9.3v17.8zm0-12.2q-1.3-0.8-2.9-1.3-1.6-0.4-3.7-0.4-3.2 0-5 1.4-1.9 1.4-1.9 3.5 0 1.1 0.5 1.9 0.5 0.8 1.2 1.4 0.8 0.6 1.7 0.9 1.1 0.3 2.1 0.3 1.6 0 3-0.6 1.5-0.7 2.6-1.7 1.1-1.1 1.8-2.5 0.6-1.3 0.6-2.9zm15.4 3.2v-14.5h-5.1v-5.9h5.1v-9h6.7v9h7.3v5.9h-7.3v13.1q0 1.1 0.2 2 0.3 0.9 0.8 1.5 1 1.1 2.5 1.1 1 0 1.5-0.1 0.6-0.2 1.2-0.5l2 5.9q-1.2 0.5-2.6 0.8-1.4 0.2-3.1 0.2-2.1 0-3.8-0.6-1.6-0.7-2.8-1.8-2.6-2.6-2.6-7.1zm40.7-0.8l5.7 2.8q-1.8 3.4-5.3 5.7-3.4 2.3-8.4 2.3-3.3 0-6.1-1.1-2.7-1.2-4.8-3.3-2-2.1-3.2-5-1.1-2.8-1.1-6.3 0-3.1 1.1-6 1.1-2.8 3-4.9 2-2.2 4.7-3.5 2.8-1.2 6.1-1.2 3.5 0 6.1 1.1 2.7 1.2 4.6 3.2 1.8 2 2.8 4.9 1 2.9 1 6.3 0 0.3 0 0.6-0.1 0.3-0.1 0.5 0 0.2 0 0.5h-22.6q0.1 2.1 1 3.6 0.8 1.6 2 2.6 1.3 1 2.8 1.5 1.5 0.5 2.9 0.5 2.9 0 4.8-1.4 1.8-1.4 3-3.4zm-16.1-8.5h15.6q-0.1-0.9-0.6-2-0.4-1.1-1.3-2-0.9-1-2.4-1.7-1.5-0.6-3.6-0.6-2.9 0-5 1.7-2 1.7-2.7 4.6zm43.8 9.3v-14.5h-5.2v-5.9h5.2v-9h6.6v9h7.3v5.9h-7.3v13.1q0 1.1 0.3 2 0.2 0.9 0.7 1.5 1 1.1 2.6 1.1 0.9 0 1.5-0.1 0.5-0.2 1.1-0.5l2.1 5.9q-1.3 0.5-2.7 0.8-1.4 0.2-3.1 0.2-2.1 0-3.7-0.6-1.6-0.7-2.8-1.8-2.6-2.6-2.6-7.1zm40.7-0.8l5.7 2.8q-1.9 3.4-5.3 5.7-3.4 2.3-8.4 2.3-3.3 0-6.1-1.1-2.8-1.2-4.8-3.3-2.1-2.1-3.2-5-1.2-2.8-1.2-6.3 0-3.1 1.1-6 1.1-2.8 3-4.9 2-2.2 4.8-3.5 2.7-1.2 6.1-1.2 3.4 0 6 1.1 2.7 1.2 4.6 3.2 1.9 2 2.8 4.9 1 2.9 1 6.3 0 0.3 0 0.6 0 0.3 0 0.5-0.1 0.2-0.1 0.5h-22.6q0.2 2.1 1 3.6 0.9 1.6 2.1 2.6 1.2 1 2.7 1.5 1.5 0.5 3 0.5 2.8 0 4.7-1.4 1.9-1.4 3.1-3.4zm-16.2-8.5h15.7q-0.1-0.9-0.6-2-0.4-1.1-1.4-2-0.9-1-2.4-1.7-1.4-0.6-3.5-0.6-2.9 0-5 1.7-2.1 1.7-2.8 4.6zm48.9 8.3l6 2.5q-0.9 1.8-2.1 3.3-1.2 1.5-2.9 2.7-1.6 1.2-3.8 1.8-2.2 0.7-4.7 0.7-3.4 0-6.2-1.1-2.8-1.2-4.9-3.3-2-2.1-3.2-5-1.1-2.9-1.1-6.3 0-3.3 1.1-6.2 1.2-2.9 3.2-5 2.1-2.1 4.9-3.2 2.8-1.2 6.2-1.2 2.5 0 4.6 0.6 2.2 0.7 3.8 1.9 1.7 1.1 2.9 2.7 1.2 1.5 1.9 3.2l-6.1 2.6q-1-2.3-2.8-3.6-1.8-1.2-4.6-1.2-1.7 0-3.2 0.7-1.5 0.6-2.7 1.9-1.2 1.2-1.9 2.9-0.6 1.8-0.6 3.9 0 2.2 0.6 3.9 0.7 1.8 1.9 3 1.2 1.2 2.7 2 1.5 0.6 3.2 0.6 2.8 0 4.7-1.2 2-1.4 3.1-3.6zm10.8 10v-42.9h6.6v12.8l-0.3 4.7h0.3q1.3-2.1 3.7-3.5 2.5-1.4 5.5-1.4 2.9 0 5 0.9 2.1 0.8 3.5 2.4 1.3 1.7 2 3.9 0.7 2.3 0.7 5v18.1h-6.7v-17.2q0-3.7-1.8-5.3-1.7-1.6-4.4-1.6-1.8 0-3.2 0.7-1.3 0.8-2.3 2-1 1.3-1.5 2.9-0.5 1.6-0.5 3.4v15.1zm39.8-29.4v4h0.4q1.3-2.1 3.7-3.5 2.4-1.4 5.5-1.4 5.6 0 8.3 3.3 2.8 3.3 2.8 8.9v18.1h-6.7v-17.2q0-3.9-1.8-5.4-1.7-1.5-4.6-1.5-1.7 0-3 0.7-1.4 0.7-2.3 2-1 1.2-1.5 2.8-0.4 1.5-0.4 3.3v15.3h-6.7v-29.4zm40.9-0.9q3.3 0 6.1 1.2 2.9 1.1 4.9 3.2 2 2.1 3.2 5 1.1 2.9 1.1 6.2 0 3.4-1.1 6.3-1.2 2.9-3.2 5-2 2.1-4.9 3.3-2.8 1.1-6.1 1.1-3.4 0-6.2-1.1-2.8-1.2-4.9-3.3-2-2.1-3.2-5-1.1-2.9-1.1-6.3 0-3.3 1.1-6.2 1.2-2.9 3.2-5 2.1-2.1 4.9-3.2 2.8-1.2 6.2-1.2zm0 25.1q1.6 0 3.2-0.6 1.6-0.7 2.8-1.9 1.2-1.2 1.9-2.9 0.8-1.8 0.8-4.1 0-2.2-0.8-3.9-0.7-1.8-1.9-3-1.2-1.2-2.8-1.9-1.6-0.6-3.2-0.6-1.7 0-3.3 0.6-1.5 0.7-2.8 1.9-1.2 1.2-1.9 3-0.7 1.7-0.7 3.9 0 2.3 0.7 4.1 0.7 1.7 1.9 2.9 1.3 1.2 2.8 1.9 1.6 0.6 3.3 0.6zm26.7 5.2h-6.6v-42.9h6.6zm20.1-30.4q3.4 0 6.2 1.2 2.8 1.2 4.9 3.3 2 2.1 3.1 4.9 1.2 2.9 1.2 6.3 0 3.3-1.2 6.2-1.1 2.9-3.1 5-2.1 2.1-4.9 3.3-2.8 1.1-6.2 1.1-3.3 0-6.2-1.1-2.8-1.2-4.8-3.3-2.1-2.1-3.2-5-1.1-2.9-1.1-6.2 0-3.4 1.1-6.3 1.1-2.8 3.2-4.9 2-2.1 4.8-3.3 2.9-1.2 6.2-1.2zm0 25.2q1.7 0 3.3-0.7 1.5-0.7 2.7-1.9 1.3-1.2 2-2.9 0.7-1.8 0.7-4 0-2.2-0.7-4-0.7-1.8-2-3-1.2-1.2-2.7-1.8-1.6-0.7-3.3-0.7-1.7 0-3.2 0.7-1.6 0.6-2.8 1.8-1.2 1.2-2 3-0.7 1.8-0.7 4 0 2.2 0.7 4 0.8 1.7 2 2.9 1.2 1.2 2.8 1.9 1.5 0.7 3.2 0.7zm33.7 19.1q-3 0-5.4-0.8-2.4-0.8-4.1-2.1-1.7-1.2-2.9-2.8-1.1-1.6-1.6-3l6.4-2.6q0.8 2.4 2.8 3.9 2.1 1.4 4.8 1.4 4.2 0 6.5-2.5 2.3-2.5 2.3-7v-2.4h-0.4q-1.3 2-3.8 3.3-2.4 1.3-5.6 1.3-2.7 0-5.3-1.1-2.5-1.1-4.5-3.2-1.9-2-3-4.9-1.2-2.9-1.2-6.3 0-3.4 1.2-6.2 1.1-2.9 3-5 2-2 4.5-3.1 2.6-1.2 5.3-1.2 3.2 0 5.6 1.3 2.5 1.4 3.8 3.3h0.4v-3.6h6.4v27.7q0 3.8-1.2 6.7-1.1 2.9-3.2 4.9-1.9 2-4.8 3-2.7 1-6 1zm0.3-19.4q1.6 0 3.2-0.6 1.5-0.6 2.7-1.8 1.2-1.2 1.9-3 0.7-1.7 0.7-4 0-2.2-0.7-4-0.7-1.8-1.9-2.9-1.2-1.2-2.7-1.8-1.6-0.7-3.2-0.7-1.7 0-3.3 0.7-1.5 0.6-2.7 1.8-1.2 1.2-1.9 2.9-0.7 1.8-0.7 4 0 2.2 0.7 4 0.7 1.7 1.9 2.9 1.2 1.2 2.7 1.9 1.6 0.6 3.3 0.6zm24.1 18.4l6.7-14.6-12.3-27.7h7.5l8.1 19.5h0.3l7.8-19.5h7.4l-18.4 42.3z"/>
	</g>
</svg>