<svg width="677" height="260" viewBox="0 0 677 260" fill="none" xmlns="http://www.w3.org/2000/svg">
<path d="M0 0H677V236C677 249.255 666.255 260 653 260H0V0Z" fill="#FCFBFB"/>
<rect x="568" y="208" width="86" height="33" rx="4" fill="#F3F3F3"/>
<rect x="568" y="158" width="86" height="33" rx="4" fill="#F3F3F3"/>
<rect x="568" y="108" width="86" height="33" rx="4" fill="#F3F3F3"/>
<rect x="468" y="208" width="86" height="33" rx="4" fill="#F3F3F3"/>
<rect x="468" y="158" width="86" height="33" rx="4" fill="#F3F3F3"/>
<rect x="468" y="108" width="86" height="33" rx="4" fill="#F3F3F3"/>
<rect x="158" y="208" width="296" height="33" rx="4" fill="#F3F3F3"/>
<rect x="368" y="158" width="86" height="33" rx="4" fill="#F3F3F3"/>
<rect x="368" y="108" width="86" height="33" rx="4" fill="#F3F3F3"/>
<rect x="268" y="158" width="86" height="33" rx="4" fill="#F3F3F3"/>
<rect x="159" y="158" width="86" height="33" rx="4" fill="#F3F3F3"/>
<rect x="268" y="108" width="86" height="33" rx="4" fill="#F3F3F3"/>
<rect x="159" y="108" width="86" height="33" rx="4" fill="#F3F3F3"/>
</svg>
