<svg width="162" height="298" viewBox="0 0 162 298" fill="none" xmlns="http://www.w3.org/2000/svg">
<path d="M143.5 272.5C152.333 267.833 166.7 254.5 153.5 238.5C137 218.5 86.5 191.5 102.5 140.5" stroke="#F8825C" stroke-width="5" stroke-linecap="round"/>
<circle cx="136" cy="289" r="9" fill="#30D8D0"/>
<path d="M122.244 293.627L0.356939 24.7873C0.121695 24.2684 0 23.7053 0 23.1356V5.86517C0 3.18899 2.57709 1.26764 5.14191 2.03163L21.7564 6.98064C22.8642 7.31062 23.7751 8.10366 24.2544 9.15549L147.937 280.57C148.815 282.496 148.04 284.773 146.169 285.764L127.759 295.51C125.721 296.589 123.196 295.726 122.244 293.627Z" fill="#1DF2B0"/>
</svg>
