<svg width="411" height="305" viewBox="0 0 411 305" fill="none" xmlns="http://www.w3.org/2000/svg">
<path d="M61.4697 192.683L62.2799 37.725L199.919 124.112L61.4697 192.683Z" fill="#4883F3"/>
<path d="M226.012 302H49.0117C49.0117 302 46.0117 212 136.012 212C226.012 212 226.012 302 226.012 302Z" stroke="#4883F3" stroke-width="6"/>
<path d="M233 211.5V96L328 147.5V211.5H233Z" stroke="#4883F3" stroke-width="6"/>
<path d="M273 211.5V96L368 147.5V211.5H273Z" stroke="#4883F3" stroke-opacity="0.5" stroke-width="6"/>
<path d="M313 211.5V96L408 147.5V211.5H313Z" stroke="#4883F3" stroke-opacity="0.3" stroke-width="6"/>
<rect x="261" y="238" width="147" height="64" fill="#4883F3" fill-opacity="0.1"/>
<rect x="155" y="3" width="58" height="58" rx="5" stroke="#4883F3" stroke-width="6"/>
<path d="M260.428 10.4986C262.573 8.99823 265.427 8.99823 267.572 10.4986V10.4986C268.955 11.4665 270.672 11.8314 272.33 11.51V11.51C274.899 11.0116 277.506 12.1724 278.855 14.4154V14.4154C279.726 15.8623 281.146 16.8941 282.791 17.2746V17.2746C285.341 17.8645 287.25 19.9853 287.571 22.5831V22.5831C287.777 24.2589 288.655 25.779 290.003 26.7957V26.7957C292.092 28.3719 292.974 31.086 292.21 33.5895V33.5895C291.717 35.2043 291.901 36.95 292.719 38.4271V38.4271C293.987 40.7169 293.688 43.5551 291.972 45.5313V45.5313C290.865 46.806 290.322 48.4755 290.469 50.1575V50.1575C290.696 52.7651 289.269 55.2366 286.897 56.3439V56.3439C285.367 57.0581 284.193 58.3625 283.642 59.9587V59.9587C282.789 62.4332 280.48 64.1107 277.863 64.1575V64.1575C276.175 64.1877 274.571 64.9016 273.419 66.136V66.136C271.633 68.0495 268.842 68.6428 266.432 67.6211V67.6211C264.878 66.9621 263.122 66.9621 261.568 67.6211V67.6211C259.158 68.6428 256.367 68.0495 254.581 66.136V66.136C253.429 64.9016 251.825 64.1877 250.137 64.1575V64.1575C247.52 64.1107 245.211 62.4332 244.358 59.9587V59.9587C243.807 58.3625 242.633 57.0581 241.103 56.3439V56.3439C238.731 55.2366 237.304 52.7651 237.531 50.1575V50.1575C237.678 48.4755 237.135 46.806 236.028 45.5313V45.5313C234.312 43.5551 234.013 40.7169 235.281 38.4271V38.4271C236.099 36.95 236.283 35.2043 235.79 33.5895V33.5895C235.026 31.086 235.908 28.3719 237.997 26.7957V26.7957C239.345 25.779 240.223 24.2589 240.429 22.5831V22.5831C240.75 19.9853 242.659 17.8645 245.209 17.2746V17.2746C246.854 16.8941 248.274 15.8623 249.145 14.4154V14.4154C250.494 12.1724 253.101 11.0116 255.67 11.51V11.51C257.328 11.8314 259.045 11.4665 260.428 10.4986V10.4986Z" fill="#4883F3"/>
</svg>
